<?xml version="1.0" encoding="UTF-8"?>
<svg version="1.1" xmlns="http://www.w3.org/2000/svg" width="20" height="20">
<path d="M0 0 C2.89349469 0.94353088 4.1041231 1.51419477 5.875 3.9375 C6.37 5.4225 6.37 5.4225 6.875 6.9375 C7.390625 6.1125 7.90625 5.2875 8.4375 4.4375 C10.875 1.9375 10.875 1.9375 14.375 1.375 C18.35264662 2.01426464 19.50685681 2.74961494 21.875 5.9375 C22.205 6.9275 22.535 7.9175 22.875 8.9375 C23.57625 8.256875 24.2775 7.57625 25 6.875 C27.875 4.9375 27.875 4.9375 31 5 C35.36689189 6.42398649 35.36689189 6.42398649 36.875 8.9375 C37.0625 12.625 37.0625 12.625 36.875 15.9375 C37.96514516 14.90972555 37.96514516 14.90972555 38.9375 13.375 C41.61464865 11.38872842 43.73292973 11.45389808 47.00390625 11.5859375 C48.875 11.9375 48.875 11.9375 50.8125 13.625 C51.93718055 16.07283414 52.50507332 18.27402788 52.875 20.9375 C53.865 20.4425 53.865 20.4425 54.875 19.9375 C61.01045817 19.49128486 61.01045817 19.49128486 63.8125 20.9375 C65.54778693 24.20392246 65.05482715 27.28101452 64.875 30.9375 C66.3306523 30.9375 67.76222158 30.5458125 69.1875 30.25 C72.875 29.9375 72.875 29.9375 75.3125 30.875 C77.80901068 34.17039409 77.19791479 36.86877359 76.875 40.9375 C76.545 41.5975 76.215 42.2575 75.875 42.9375 C76.926875 42.669375 77.97875 42.40125 79.0625 42.125 C82.875 41.9375 82.875 41.9375 85.875 43.9375 C87.875 46.9375 87.875 46.9375 87.75 50.6875 C86.875 53.9375 86.875 53.9375 85.875 54.9375 C86.968125 55.02 88.06125 55.1025 89.1875 55.1875 C92.875 55.9375 92.875 55.9375 94.8125 57.625 C96.19931433 60.6433606 96.2862874 62.64720079 95.875 65.9375 C94.375 68.3125 94.375 68.3125 92.875 69.9375 C93.6175 69.855 94.36 69.7725 95.125 69.6875 C97.875 69.9375 97.875 69.9375 100.1875 71.5 C102.49354451 74.83095318 102.379958 76.9699729 101.875 80.9375 C100.33237187 83.04108381 99.19391683 83.77804159 96.875 84.9375 C97.98875 85.205625 99.1025 85.47375 100.25 85.75 C103.875 86.9375 103.875 86.9375 105.875 89.9375 C106.34649618 93.63088676 106.36044427 95.27868277 104.125 98.3125 C101.875 99.9375 101.875 99.9375 97.875 99.9375 C97.875 100.5975 97.875 101.2575 97.875 101.9375 C98.803125 101.875625 99.73125 101.81375 100.6875 101.75 C103.875 101.9375 103.875 101.9375 105.75 103 C107.54330867 106.08847604 107.30341969 108.44893969 106.875 111.9375 C104.65636971 114.84467073 103.35555071 115.77731643 99.875 116.9375 C100.679375 117.288125 101.48375 117.63875 102.3125 118 C104.875 119.9375 104.875 119.9375 106 123.3125 C105.875 126.9375 105.875 126.9375 103.75 129.875 C100.65709603 132.09382242 99.55213011 132.34607001 95.875 131.9375 C95.545 132.2675 95.215 132.5975 94.875 132.9375 C96.050625 133.0921875 96.050625 133.0921875 97.25 133.25 C99.875 133.9375 99.875 133.9375 101.875 136.9375 C102.25 140.4375 102.25 140.4375 101.875 143.9375 C100.3125 145.875 100.3125 145.875 97.875 146.9375 C94.125 147.125 94.125 147.125 90.875 146.9375 C91.7 147.453125 92.525 147.96875 93.375 148.5 C95.875 150.9375 95.875 150.9375 96.5 154.4375 C95.875 157.9375 95.875 157.9375 93.75 160.375 C90.49172415 162.14580209 88.52736803 162.27725517 84.875 161.9375 C85.390625 162.453125 85.90625 162.96875 86.4375 163.5 C87.875 165.9375 87.875 165.9375 87.75 169.5625 C86.875 172.9375 86.875 172.9375 83.875 174.9375 C81.54300612 175.01655064 79.20667378 175.02548769 76.875 174.9375 C76.875 176.56370148 76.98390479 178.18819891 77.0625 179.8125 C77.04007817 182.31477634 77.00312128 183.68125744 75.875 185.9375 C72.59005367 187.57997317 69.51314454 187.11353925 65.875 186.9375 C65.545 186.9375 65.215 186.9375 64.875 186.9375 C64.978125 188.195625 65.08125 189.45375 65.1875 190.75 C65.18359375 192.953125 65.18359375 192.953125 64.875 194.9375 C62.75 197 62.75 197 59.875 197.9375 C56.6875 197.875 56.6875 197.875 53.875 196.9375 C52.5 194.875 52.5 194.875 51.875 192.9375 C51.83260008 195.93065418 51.83260008 195.93065418 52.125 198.875 C51.875 201.9375 51.875 201.9375 50.25 204.3125 C47.18022452 206.4128727 45.52943439 206.47043835 41.875 205.9375 C39.5 204.4375 39.5 204.4375 37.875 202.9375 C37.606875 204.05125 37.33875 205.165 37.0625 206.3125 C35.875 209.9375 35.875 209.9375 32.875 211.9375 C29.14204845 212.41404701 27.53083081 212.43800246 24.5 210.125 C22.875 207.9375 22.875 207.9375 22.875 204.9375 C22.545 205.2675 22.215 205.5975 21.875 205.9375 C21.9575 206.865625 22.04 207.79375 22.125 208.75 C21.875 211.9375 21.875 211.9375 19.8125 214.375 C15.96203161 216.42312148 14.01564223 216.16435696 9.875 214.9375 C7.39046646 212.53578424 6.47744439 210.3111886 5.875 206.9375 C5.9575 207.845 6.04 208.7525 6.125 209.6875 C5.875 212.9375 5.875 212.9375 4.25 215.3125 C1.18022452 217.4128727 -0.47056561 217.47043835 -4.125 216.9375 C-6.4375 215.8125 -6.4375 215.8125 -8.125 213.9375 C-8.875 210.75 -8.875 210.75 -9.125 207.9375 C-9.57875 209.071875 -10.0325 210.20625 -10.5 211.375 C-12.125 214.9375 -12.125 214.9375 -14.125 215.9375 C-17.72370962 216.32866409 -19.46939619 216.41591359 -22.4375 214.25 C-24.26801602 211.74151508 -24.78509204 209.99667167 -25.125 206.9375 C-25.66125 207.7625 -26.1975 208.5875 -26.75 209.4375 C-29.125 211.9375 -29.125 211.9375 -32.0625 212.5625 C-36.15138571 211.72803353 -37.63139016 210.23786596 -40.125 206.9375 C-40.4375 204.125 -40.4375 204.125 -40.125 201.9375 C-40.66125 202.5975 -41.1975 203.2575 -41.75 203.9375 C-44.125 205.9375 -44.125 205.9375 -47.125 206.4375 C-50.125 205.9375 -50.125 205.9375 -52.4375 204.3125 C-54.43733339 201.49791967 -54.81529053 199.34430413 -55.125 195.9375 C-56.115 196.5975 -57.105 197.2575 -58.125 197.9375 C-61.80756285 197.8059799 -64.22248237 197.67079557 -67.125 195.3125 C-68.54118658 191.94905688 -67.86618118 189.44126557 -67.125 185.9375 C-67.785 186.2675 -68.445 186.5975 -69.125 186.9375 C-72.9862692 187.29502493 -75.29224804 187.45796997 -78.625 185.375 C-80.73393387 181.94798245 -79.9906046 179.76058697 -79.125 175.9375 C-79.125 175.6075 -79.125 175.2775 -79.125 174.9375 C-80.383125 175.02 -81.64125 175.1025 -82.9375 175.1875 C-86.83428484 175.17370607 -86.83428484 175.17370607 -89.125 173.3125 C-90.37464598 170.3445908 -90.40256584 168.12950721 -90.125 164.9375 C-89.795 164.2775 -89.465 163.6175 -89.125 162.9375 C-90.23875 162.669375 -91.3525 162.40125 -92.5 162.125 C-96.125 160.9375 -96.125 160.9375 -98.125 157.9375 C-98.5 154.5 -98.5 154.5 -98.125 150.9375 C-96.125 148.5 -96.125 148.5 -94.125 146.9375 C-95.1975 147.040625 -96.27 147.14375 -97.375 147.25 C-101.125 146.9375 -101.125 146.9375 -103.625 144.8125 C-105.125 141.9375 -105.125 141.9375 -105.0625 138.8125 C-104.13611203 135.97157688 -103.44252588 134.75121591 -101.125 132.9375 C-101.90875 132.48375 -102.6925 132.03 -103.5 131.5625 C-106.125 129.9375 -106.125 129.9375 -108.125 127.9375 C-108.5625 124.5625 -108.5625 124.5625 -108.125 120.9375 C-105.625 118.5 -105.625 118.5 -103.125 116.9375 C-104.094375 116.40125 -105.06375 115.865 -106.0625 115.3125 C-109.125 112.9375 -109.125 112.9375 -110.25 110 C-110.125 106.9375 -110.125 106.9375 -108.5625 104.0625 C-106.125 101.9375 -106.125 101.9375 -102.875 101.625 C-101.9675 101.728125 -101.06 101.83125 -100.125 101.9375 C-100.125 101.2775 -100.125 100.6175 -100.125 99.9375 C-101.07375 99.834375 -102.0225 99.73125 -103 99.625 C-106.125 98.9375 -106.125 98.9375 -108.125 95.9375 C-108.47745721 92.62440226 -108.46900223 90.60739907 -106.9375 87.625 C-104.71835278 85.55889742 -103.09954134 85.25907204 -100.125 84.9375 C-100.764375 84.380625 -101.40375 83.82375 -102.0625 83.25 C-104.36982979 80.66299388 -104.95341182 79.36926356 -105.125 75.9375 C-104.421875 73.859375 -104.421875 73.859375 -103.125 71.9375 C-100.9609375 71.109375 -100.9609375 71.109375 -98.5 70.6875 C-97.68273437 70.53796875 -96.86546875 70.3884375 -96.0234375 70.234375 C-95.39695312 70.13640625 -94.77046875 70.0384375 -94.125 69.9375 C-94.785 69.6075 -95.445 69.2775 -96.125 68.9375 C-98.42351498 66.63898502 -98.4648291 66.06296873 -98.5625 62.9375 C-98.41945814 60.50131829 -98.24365825 59.15387681 -97.0625 57 C-94.19192435 55.42581335 -91.3502528 55.24176913 -88.125 54.9375 C-88.785 54.2775 -89.445 53.6175 -90.125 52.9375 C-90.55334085 49.08243238 -90.68397202 46.80949635 -88.5625 43.5 C-85.30629203 41.4126872 -82.91504984 41.6459577 -79.125 41.9375 C-79.455 41.2775 -79.785 40.6175 -80.125 39.9375 C-80.5 37.0625 -80.5 37.0625 -80.125 33.9375 C-78.0625 31.5 -78.0625 31.5 -75.125 29.9375 C-71.375 30.1875 -71.375 30.1875 -68.125 30.9375 C-67.795 30.9375 -67.465 30.9375 -67.125 30.9375 C-67.3725 29.865 -67.62 28.7925 -67.875 27.6875 C-68.125 23.9375 -68.125 23.9375 -66.625 21.5 C-63.26177199 19.39798249 -61.02357963 19.5122004 -57.125 19.9375 C-56.135 20.5975 -55.145 21.2575 -54.125 21.9375 C-54.186875 20.844375 -54.24875 19.75125 -54.3125 18.625 C-54.125 14.9375 -54.125 14.9375 -53.125 13 C-49.95745911 11.3172439 -46.6336342 11.39281284 -43.125 11.9375 C-42.135 12.5975 -41.145 13.2575 -40.125 13.9375 C-40.063125 13.009375 -40.00125 12.08125 -39.9375 11.125 C-39.125 7.9375 -39.125 7.9375 -36.9375 6 C-33.44908458 4.68215418 -31.65811738 4.78539651 -28.125 5.9375 C-26.25 8 -26.25 8 -25.125 9.9375 C-24.83625 8.98875 -24.5475 8.04 -24.25 7.0625 C-23.125 3.9375 -23.125 3.9375 -21.125 1.9375 C-14.06825718 1.37744105 -14.06825718 1.37744105 -11.125 3.125 C-9.81605832 5.49745679 -9.90879825 7.2710118 -10.125 9.9375 C-9.465 9.9375 -8.805 9.9375 -8.125 9.9375 C-8.228125 9.03 -8.33125 8.1225 -8.4375 7.1875 C-8.125 3.9375 -8.125 3.9375 -6 1.5 C-3.125 -0.0625 -3.125 -0.0625 0 0 Z M-65.125 39.9375 C-65.82238281 40.55109375 -66.51976563 41.1646875 -67.23828125 41.796875 C-83.41782154 56.97127351 -94.45796841 80.25441828 -95.36328125 102.484375 C-95.96166953 130.31882166 -86.99204432 155.18192585 -67.64453125 175.48046875 C-53.61716987 189.15986457 -34.72499471 199.36646151 -15.125 201.9375 C-14.29613281 202.04707031 -13.46726562 202.15664062 -12.61328125 202.26953125 C12.17219053 205.11625466 36.16686285 198.39568242 55.9375 183.1875 C75.9163907 166.50640697 89.04269669 145.46551924 92.5625 119.4375 C94.66111685 95.08480031 88.54047703 70.04857243 72.69921875 51.0390625 C72.09722656 50.34554687 71.49523437 49.65203125 70.875 48.9375 C70.22144531 48.14085937 69.56789062 47.34421875 68.89453125 46.5234375 C56.0304095 31.38641992 39.07171616 21.71155245 19.875 16.9375 C19.03453125 16.71320312 18.1940625 16.48890625 17.328125 16.2578125 C-12.36223775 9.52676753 -42.90307612 20.23061557 -65.125 39.9375 Z M50.875 21.9375 C50.545 22.5975 50.215 23.2575 49.875 23.9375 C50.535 23.9375 51.195 23.9375 51.875 23.9375 C51.545 23.2775 51.215 22.6175 50.875 21.9375 Z M73.875 42.9375 C74.205 43.5975 74.535 44.2575 74.875 44.9375 C75.205 44.2775 75.535 43.6175 75.875 42.9375 C75.215 42.9375 74.555 42.9375 73.875 42.9375 Z M-87.125 159.9375 C-87.455 160.5975 -87.785 161.2575 -88.125 161.9375 C-87.465 161.9375 -86.805 161.9375 -86.125 161.9375 C-86.455 161.2775 -86.785 160.6175 -87.125 159.9375 Z M-67.125 183.9375 C-66.795 184.5975 -66.465 185.2575 -66.125 185.9375 C-65.795 185.2775 -65.465 184.6175 -65.125 183.9375 C-65.785 183.9375 -66.445 183.9375 -67.125 183.9375 Z M-54.125 192.9375 C-53.795 193.5975 -53.465 194.2575 -53.125 194.9375 C-52.795 194.2775 -52.465 193.6175 -52.125 192.9375 C-52.785 192.9375 -53.445 192.9375 -54.125 192.9375 Z " fill="#D40000" transform="translate(111.125,1.0625)"/>
<path d="M0 0 C0.70125 0.763125 1.4025 1.52625 2.125 2.3125 C6.31717218 6.23126965 11.33480642 7.41088443 17 8 C17.99 7.34 18.98 6.68 20 6 C25.11930261 6.09844813 28.65529855 7.42729428 32.65234375 10.484375 C34 12 34 12 34.4375 15.375 C35.17811468 20.14785013 37.18661627 21.61147651 40.69921875 24.71484375 C43.00154607 26.26524524 43.00154607 26.26524524 46.0234375 25.8671875 C49 26 49 26 51.15234375 28.23046875 C51.74144531 29.20628906 52.33054687 30.18210937 52.9375 31.1875 C53.54464844 32.15042969 54.15179688 33.11335938 54.77734375 34.10546875 C56.58176633 38.37728067 55.41242708 40.76271875 54 45 C54.56344643 48.49566766 55.54343181 51.7723773 57 55 C57.86625 55.515625 58.7325 56.03125 59.625 56.5625 C62 58 62 58 62.61328125 59.91796875 C63.33162991 65.0848862 62.970421 69.17246856 61 74 C60.01 74.66 59.02 75.32 58 76 C56.94481512 78.23395634 56.94481512 78.23395634 56.25 80.8125 C55.98703125 81.66457031 55.7240625 82.51664062 55.453125 83.39453125 C54.81074359 87.08822435 55.65461861 89.92261626 56.78515625 93.44921875 C57.09940499 97.18020838 55.60543187 98.83009649 53.4375 101.8125 C52.75558594 102.78832031 52.07367188 103.76414062 51.37109375 104.76953125 C48.34577896 107.61542045 47.02112081 107.12042419 43 107 C40.55032584 108.54423299 40.55032584 108.54423299 38.5625 110.75 C37.86253906 111.44609375 37.16257812 112.1421875 36.44140625 112.859375 C34.73525814 114.88862608 34.73525814 114.88862608 35.27734375 117.265625 C35.63505859 118.12414062 35.63505859 118.12414062 36 119 C34.75312408 119.96239452 33.50235031 120.91974009 32.25 121.875 C31.55390625 122.40867187 30.8578125 122.94234375 30.140625 123.4921875 C24.94990724 127.14842301 24.94990724 127.14842301 22 126.6875 C20.70386683 126.24195422 19.41179917 125.78432636 18.125 125.3125 C15.08611908 124.86560575 12.87427467 126.00280266 10 127 C7.125 127.125 7.125 127.125 5 127 C4.5359375 128.2065625 4.5359375 128.2065625 4.0625 129.4375 C3 132 3 132 2 133 C-0.09916026 133.17858965 -2.20622688 133.26798477 -4.3125 133.3125 C-6.03919922 133.36857422 -6.03919922 133.36857422 -7.80078125 133.42578125 C-11 133 -11 133 -13.41796875 131.10546875 C-15 129 -15 129 -15 127 C-16.051875 126.855625 -17.10375 126.71125 -18.1875 126.5625 C-22 126 -22 126 -24.75 125.3125 C-27.28019785 124.70732241 -27.28019785 124.70732241 -30 127 C-35.96501967 127 -39.62100069 123.63434714 -44 120 C-43.76152344 119.26394531 -43.52304688 118.52789062 -43.27734375 117.76953125 C-42.7046223 114.9485217 -42.7046223 114.9485217 -44.44140625 112.76171875 C-48.62701364 108.32529326 -48.62701364 108.32529326 -54.25 106.8125 C-55.1575 106.874375 -56.065 106.93625 -57 107 C-59.1875 104.8125 -59.1875 104.8125 -61 102 C-61.8971875 100.948125 -61.8971875 100.948125 -62.8125 99.875 C-64.42210601 95.97805913 -63.72083708 92.99143008 -63.1953125 88.87109375 C-62.90451173 84.59632236 -63.85505635 81.10832721 -65 77 C-66.65 76.67 -68.3 76.34 -70 76 C-70.88081608 72.93845379 -71.19238202 70.12089323 -71.25 66.9375 C-71.27578125 66.08027344 -71.3015625 65.22304687 -71.328125 64.33984375 C-70.93312794 61.52313855 -70.21039712 60.72217834 -68 59 C-67.01 58.505 -67.01 58.505 -66 58 C-65.04707345 55.79688191 -65.04707345 55.79688191 -64.3125 53.1875 C-64.04050781 52.31480469 -63.76851562 51.44210938 -63.48828125 50.54296875 C-62.96890937 47.83808002 -63.16397466 46.5790115 -64 44 C-65.04888235 40.64467479 -65.171321 39.4081957 -63.78515625 36.10546875 C-63.21667969 35.14253906 -62.64820313 34.17960937 -62.0625 33.1875 C-61.21365234 31.72376953 -61.21365234 31.72376953 -60.34765625 30.23046875 C-59.90292969 29.49441406 -59.45820312 28.75835937 -59 28 C-56.36 28 -53.72 28 -51 28 C-50.7525 27.4225 -50.505 26.845 -50.25 26.25 C-48.81700012 23.67060021 -47.21575324 21.93878408 -45 20 C-44.34 20 -43.68 20 -43 20 C-43.33 17.69 -43.66 15.38 -44 13 C-42.44333045 12.0115904 -40.87937574 11.03464918 -39.3125 10.0625 C-38.44238281 9.51722656 -37.57226562 8.97195312 -36.67578125 8.41015625 C-34.01617342 7.00852351 -31.99266554 6.23961717 -29 6 C-28.34 6.66 -27.68 7.32 -27 8 C-23.65274469 7.72481084 -23.65274469 7.72481084 -20 7 C-18.865625 6.814375 -17.73125 6.62875 -16.5625 6.4375 C-15.2940625 6.2209375 -15.2940625 6.2209375 -14 6 C-13.67 4.35 -13.34 2.7 -13 1 C-3.71856287 -0.48502994 -3.71856287 -0.48502994 0 0 Z M-45.44921875 31.765625 C-55.57686715 43.85309371 -59.18188118 58.54345007 -58 74 C-55.75605032 87.8401997 -48.91913881 99.33804246 -38 108 C-36.32666842 104.87852455 -34.66248284 101.75226502 -33 98.625 C-32.28457031 97.29082031 -32.28457031 97.29082031 -31.5546875 95.9296875 C-30.87792969 94.65351563 -30.87792969 94.65351563 -30.1875 93.3515625 C-29.76855469 92.56604004 -29.34960938 91.78051758 -28.91796875 90.97119141 C-27.85927999 89.06023569 -27.85927999 89.06023569 -28 87 C-29.18558652 85.84828738 -30.3719499 84.69736217 -31.5625 83.55078125 C-38.5486254 76.0141188 -40.84552778 67.06877999 -41 57 C-40.33983376 48.00706882 -35.62706879 41.19039422 -29.125 35.1875 C-18.85790801 26.71026504 -7.88861228 25.96973759 5 27 C8.79479902 27.76187141 11.71045429 28.98010351 15 31 C16.25683594 31.76957031 16.25683594 31.76957031 17.5390625 32.5546875 C25.48218855 38.1460723 32.0133408 47.34409965 34 57 C34.78691531 70.01635328 34.72523835 80.90735111 25.75 91.1875 C24.51570856 92.47359564 23.27121258 93.75038569 22 95 C22.63228516 96.15628906 22.63228516 96.15628906 23.27734375 97.3359375 C23.82519531 98.33882813 24.37304688 99.34171875 24.9375 100.375 C25.48277344 101.37273437 26.02804688 102.37046875 26.58984375 103.3984375 C27.4149759 104.92070346 28.22564391 106.45128783 29 108 C34.95248483 106.94726797 38.31941166 102.3723654 41.6796875 97.62890625 C49.02577111 85.91537492 52.09638566 72.48192829 49.3515625 58.7578125 C44.47816156 41.38851172 33.74776817 27.95388015 18.34375 18.8125 C14.32237041 16.63268677 10.46113952 14.99333524 6 14 C5.2059375 13.82082031 4.411875 13.64164063 3.59375 13.45703125 C-15.09849527 10.16336755 -32.69959508 18.40711916 -45.44921875 31.765625 Z M-25 35 C-25.61230469 35.38285156 -26.22460938 35.76570313 -26.85546875 36.16015625 C-32.57776799 40.2643246 -35.83016893 47.15171565 -38.4375 53.5 C-39.77149985 61.80044349 -38.03120747 69.65318402 -34 77 C-31.84101029 79.85394348 -29.52218483 82.4636456 -27 85 C-23.35523947 81.65104612 -21.05359181 77.86395014 -20 73 C-20.69515957 70.72260608 -21.71597466 68.9932883 -22.953125 66.96484375 C-24.7253518 63.63861211 -24.69310452 60.64940747 -24 57 C-22.10415315 51.1633479 -19.5152793 47.9336592 -14 45 C-7.68739124 42.89579708 0.33650807 42.82483237 6.5 45.5 C11.58770791 48.50099473 14.18096718 53.54290154 16 59 C16.4839395 65.11438946 16.44520355 70.3659214 14.0625 76.0625 C12.81477391 79.55046157 12.82587656 80.60722154 14.359375 84.06640625 C16.12309145 86.8283862 17.95892164 89.43769161 20 92 C23.5198582 90.56767675 25.06793624 88.91637039 27.125 85.75 C27.62257813 85.00234375 28.12015625 84.2546875 28.6328125 83.484375 C33.10726959 75.35364726 33.15719228 66.04659174 32 57 C28.83502139 46.49273645 21.42112336 37.58045798 12.0546875 31.97265625 C-0.34978804 26.10057562 -13.7533613 27.52017809 -25 35 Z M-6 46 C-4.41837079 51.74719344 -4.41837079 51.74719344 -0.4375 55.8125 C0.366875 56.204375 1.17125 56.59625 2 57 C3.91446435 59.87169653 4.29599399 61.00339079 4.8125 64.25 C5.80481262 69.17929279 7.86034154 72.11673822 11 76 C14.59741659 70.60387512 14.87822209 65.32488795 14 59 C11.94997364 54.16047347 8.99370008 50.30474711 4.5625 47.4375 C0.74933759 45.89885552 -1.92834929 45.66762035 -6 46 Z M-12.875 47.0625 C-17.16559495 49.72266887 -20.20986118 52.29510759 -21.63671875 57.1796875 C-22.44053879 62.31376387 -21.87520681 65.51467737 -19 70 C-18.62875 69.525625 -18.2575 69.05125 -17.875 68.5625 C-15.37353038 66.47794198 -13.18406582 66.35378509 -10 66 C-10.33 63.36 -10.66 60.72 -11 58 C-12.32 58.33 -13.64 58.66 -15 59 C-15 58.01 -15 57.02 -15 56 C-14.05125 55.814375 -13.1025 55.62875 -12.125 55.4375 C-8.61628301 54.26599195 -8.61628301 54.26599195 -7.625 50.375 C-7.315625 48.704375 -7.315625 48.704375 -7 47 C-9.99026044 45.65575702 -9.99026044 45.65575702 -12.875 47.0625 Z M-6 53 C-7.485 56.96 -7.485 56.96 -9 61 C-8.01 61.495 -8.01 61.495 -7 62 C-5.20317184 58.19495213 -4.92650209 57.29399165 -6 53 Z M-3 57 C-4.76462683 60.08809695 -5 61.23312136 -5 65 C-2.69 65 -0.38 65 2 65 C1.64950425 61.75791433 1.43778819 60.38472296 -1.0625 58.1875 C-1.701875 57.795625 -2.34125 57.40375 -3 57 Z M-15 71 C-15 71.99 -15 72.98 -15 74 C-10.09596038 75.8000988 -10.09596038 75.8000988 -5.0625 75.125 C-4.381875 74.75375 -3.70125 74.3825 -3 74 C-3 73.67 -3 73.34 -3 73 C-8.94 72.01 -8.94 72.01 -15 71 Z M3 71 C1.64613064 72.65002828 0.31321858 74.3174387 -1 76 C-3.58120066 77.29060033 -5.49419829 77.13272333 -8.375 77.125 C-9.33148438 77.12757812 -10.28796875 77.13015625 -11.2734375 77.1328125 C-14 77 -14 77 -18 76 C-19.65 79.63 -21.3 83.26 -23 87 C-16.67834195 90.79299483 -12.21410208 90.90385502 -5 90 C0.12816868 88.27693532 5.95426044 85.64112695 9 81 C8.89905163 77.06301352 7.26323139 74.16852395 5 71 C4.34 71 3.68 71 3 71 Z M11 83 C10.38125 83.59748047 10.38125 83.59748047 9.75 84.20703125 C1.7880919 91.51137104 -4.82165518 92.33354127 -15.4140625 92.30078125 C-18.93801185 92.00519944 -21.68504548 91.17175042 -25 90 C-27.05097554 93.76126252 -29.08064643 97.53301589 -31.09130859 101.31591797 C-31.77826156 102.60123715 -32.47094752 103.88350931 -33.16943359 105.16259766 C-34.17246451 107.00172547 -35.15437266 108.85082341 -36.1328125 110.703125 C-36.72980957 111.81333008 -37.32680664 112.92353516 -37.94189453 114.06738281 C-39.27294237 116.8687747 -39.27294237 116.8687747 -38.36669922 119.26855469 C-36.93357515 121.26775568 -36.93357515 121.26775568 -34 123 C-31.95188457 122.6696588 -30.13893474 122.04840307 -28.18359375 121.3671875 C-25.38644873 120.8968268 -23.67019827 121.52165456 -21 122.4375 C-17.63443987 123.58158523 -15.64912986 124 -12 124 C-11.34 125.65 -10.68 127.3 -10 129 C-6.01316491 129.80392466 -6.01316491 129.80392466 -2 130 C0.5668504 128.35246985 0.5668504 128.35246985 2 126 C2 125.34 2 124.68 2 124 C3.216875 123.87625 4.43375 123.7525 5.6875 123.625 C8.32613803 123.30966189 10.15520039 122.93348555 12.625 121.875 C15.74237259 120.72649431 17.78975737 121.31696965 21 122 C25.33094958 122 27.27034861 121.03435531 31 119 C29.62691512 114.41091455 27.75493543 110.51122452 25.375 106.359375 C24.85365479 105.44699066 24.85365479 105.44699066 24.32177734 104.51617432 C23.59144127 103.24075076 22.85849039 101.96682125 22.12304688 100.69433594 C20.99726678 98.74526797 19.88087114 96.79104826 18.765625 94.8359375 C15.38885454 88.54621637 15.38885454 88.54621637 11 83 Z " fill="#D40000" transform="translate(114,43)"/>
<path d="M0 0 C2.53510617 2.21130756 4.93979164 4.4983499 7.3203125 6.875 C8.58681641 8.12410156 8.58681641 8.12410156 9.87890625 9.3984375 C23.65999264 23.70391835 33.18939684 43.91766477 34.3203125 63.875 C34.38476562 64.9784375 34.44921875 66.081875 34.515625 67.21875 C35.29461972 93.18524053 26.38243776 116.55762988 8.65795898 135.578125 C-8.64650619 153.42712599 -32.29004935 162.47555066 -56.9296875 163.1875 C-83.028208 162.64774958 -106.50748515 152.01136493 -124.6796875 133.1796875 C-142.33819789 112.83101342 -149.0398166 88.48283026 -147.6796875 61.875 C-145.34312577 36.94122042 -132.25935033 16.02628643 -113.6796875 -0.125 C-80.78905004 -26.16184791 -32.85405752 -26.05336339 0 0 Z M-84.6796875 -13.125 C-85.7934375 -12.76277344 -86.9071875 -12.40054687 -88.0546875 -12.02734375 C-100.5379295 -7.6847065 -110.21100855 -0.17206801 -119.6796875 8.875 C-120.5459375 9.65875 -121.4121875 10.4425 -122.3046875 11.25 C-140.00479596 30.81327777 -146.72245839 54.06565429 -145.86328125 80.06005859 C-144.46943527 101.43112797 -133.59702971 120.95765779 -118.6796875 135.875 C-117.98359375 136.57109375 -117.2875 137.2671875 -116.5703125 137.984375 C-99.3350377 154.21321039 -76.08838657 161.70533605 -52.68359375 161.15625 C-28.53268902 159.74081236 -6.7346947 148.68161931 9.9453125 131.25 C26.52166233 112.11887224 33.88053875 87.93927982 32.3203125 62.875 C29.51865965 40.59413878 20.06404354 22.48001975 4.3203125 6.875 C3.63839844 6.15957031 2.95648438 5.44414063 2.25390625 4.70703125 C-14.46510614 -11.6847989 -37.69633382 -17.39805345 -60.36254883 -17.4440918 C-69.09652844 -17.34205163 -76.42256127 -16.09483903 -84.6796875 -13.125 Z " fill="#D40000" transform="translate(166.6796875,38.125)"/>
<path d="M0 0 C16.54511978 11.7477371 28.06690736 28.20161849 31.59765625 48.34765625 C33.75071443 67.89240768 30.75280642 87.63758011 18.68798828 103.75244141 C15.68709971 107.41354683 12.404983 110.71608306 9 114 C8.36707031 114.66386719 7.73414063 115.32773438 7.08203125 116.01171875 C-5.4290132 128.3018176 -24.6039529 133.25860844 -41.61230469 133.2487793 C-59.96602411 132.95953134 -77.53406597 125.45335747 -91.03125 113.0625 C-105.87397279 97.51298089 -112.68909771 79.23852703 -112.39794922 57.98828125 C-111.74650086 37.45519852 -103.08900491 20.53602761 -88.375 6.375 C-64.12657054 -14.63782614 -26.94224785 -18.12704233 0 0 Z M-94 15 C-107.57347556 32.19960261 -111.50058607 50.5427705 -110 72 C-109.35509916 76.92241572 -107.88596729 81.41418072 -106 86 C-105.525625 87.16660156 -105.05125 88.33320313 -104.5625 89.53515625 C-100.4554869 98.60810106 -95.05518799 105.09953105 -88 112 C-87.36578125 112.66644531 -86.7315625 113.33289063 -86.078125 114.01953125 C-73.67359462 126.17706877 -55.03675637 131.3125 -38.16455078 131.3125 C-20.28909827 130.99694537 -3.07605435 123.35987096 9.45703125 110.703125 C24.06443219 95.1757495 30.97046833 77.26506108 30.34375 55.97265625 C29.33111755 37.05451216 20.04275714 20.76153243 6.69921875 7.7578125 C1.90164602 3.61335471 -3.32250936 0.56582814 -8.9375 -2.3125 C-9.88520264 -2.80121582 -9.88520264 -2.80121582 -10.85205078 -3.29980469 C-20.22512827 -7.86867482 -29.4329129 -9.54479122 -39.8125 -9.4375 C-40.86493896 -9.42847656 -41.91737793 -9.41945312 -43.00170898 -9.41015625 C-62.96977448 -8.96727578 -80.91999461 -0.08684939 -94 15 Z " fill="#D40000" transform="translate(150,49)"/>
<path d="M0 0 C4.42857143 5.14285714 4.42857143 5.14285714 5 9 C3.02 8.67 1.04 8.34 -1 8 C-0.01 8.66 0.98 9.32 2 10 C1.3125 12.4375 1.3125 12.4375 0 15 C-2.625 15.8125 -2.625 15.8125 -5 16 C-5.495 18.475 -5.495 18.475 -6 21 C-6.928125 21.12375 -6.928125 21.12375 -7.875 21.25 C-10.18437567 21.81258459 -10.18437567 21.81258459 -11.25 24.0625 C-11.4975 24.701875 -11.745 25.34125 -12 26 C-13.32 26 -14.64 26 -16 26 C-17.03013277 27.64821244 -18.03114628 29.31503702 -19 31 C-19.99 31 -20.98 31 -22 31 C-22.66 31.99 -23.32 32.98 -24 34 C-25.99422795 34.36628677 -27.99453311 34.70131344 -30 35 C-30.33 35.66 -30.66 36.32 -31 37 C-32.8125 37.5625 -32.8125 37.5625 -35 38 C-37.76875112 38.49789269 -37.76875112 38.49789269 -40 40 C-40.804375 39.979375 -41.60875 39.95875 -42.4375 39.9375 C-45.16918103 39.70941092 -45.16918103 39.70941092 -47 42 C-50.125 42.125 -50.125 42.125 -53 42 C-53 40.35 -53 38.7 -53 37 C-53.66 37 -54.32 37 -55 37 C-55 38.98 -55 40.96 -55 43 C-55.99 43 -56.98 43 -58 43 C-58 41.02 -58 39.04 -58 37 C-58.99 37 -59.98 37 -61 37 C-61 36.34 -61 35.68 -61 35 C-60.00419922 34.80083984 -60.00419922 34.80083984 -58.98828125 34.59765625 C-58.10527344 34.42105469 -57.22226563 34.24445313 -56.3125 34.0625 C-51 33 -51 33 -48.46484375 32.49609375 C-46.05660214 32.01139219 -43.65177194 31.51581679 -41.25 31 C-40.08210938 30.7525 -40.08210938 30.7525 -38.890625 30.5 C-37.00260413 30.17020974 -37.00260413 30.17020974 -36 29 C-34.73971866 28.33381009 -33.46677075 27.69145501 -32.1875 27.0625 C-31.50042969 26.72347656 -30.81335938 26.38445312 -30.10546875 26.03515625 C-29.06326172 25.52275391 -29.06326172 25.52275391 -28 25 C-27.31035156 24.64035156 -26.62070313 24.28070313 -25.91015625 23.91015625 C-23.64363702 22.83019924 -21.46770592 22.41128432 -19 22 C-19 21.01 -19 20.02 -19 19 C-16 20.5 -16 20.5 -13 22 C-13.20625 21.071875 -13.4125 20.14375 -13.625 19.1875 C-14 16 -14 16 -12 13 C-10.68 13 -9.36 13 -8 13 C-7.67 11.35 -7.34 9.7 -7 8 C-6.01 7.67 -5.02 7.34 -4 7 C-3.28272222 5.35448038 -2.61674772 3.68577711 -2 2 C-1.34 1.34 -0.68 0.68 0 0 Z M-5 10 C-4 12 -4 12 -4 12 Z M-10 16 C-10 16.99 -10 17.98 -10 19 C-9.34 19 -8.68 19 -8 19 C-8.33 18.01 -8.66 17.02 -9 16 C-9.33 16 -9.66 16 -10 16 Z M-22 25 C-21.67 25.99 -21.34 26.98 -21 28 C-20.67 27.01 -20.34 26.02 -20 25 C-20.66 25 -21.32 25 -22 25 Z M-43 34 C-43 34.99 -43 35.98 -43 37 C-41.68 36.67 -40.36 36.34 -39 36 C-39.33 35.34 -39.66 34.68 -40 34 C-40.99 34 -41.98 34 -43 34 Z " fill="#D40000" transform="translate(174,154)"/>
<path d="M0 0 C2.625 -0.1875 2.625 -0.1875 5 0 C6.97387813 4.76052962 7.0070238 7.96488101 6 13 C5.443125 12.62875 4.88625 12.2575 4.3125 11.875 C1.94283647 10.70484137 1.94283647 10.70484137 -0.75 11.875 C-1.4925 12.24625 -2.235 12.6175 -3 13 C-3 12.34 -3 11.68 -3 11 C-4.32 10.67 -5.64 10.34 -7 10 C-7.495 7.525 -7.495 7.525 -8 5 C-8 7.64 -8 10.28 -8 13 C-8.66 13 -9.32 13 -10 13 C-10.66 12.34 -11.32 11.68 -12 11 C-13.31747324 10.30251417 -14.64914193 9.63040043 -16 9 C-16 9.33 -16 9.66 -16 10 C-16.32550502 11.66821323 -16.65846063 13.33499557 -17 15 C-19 13 -19 13 -20 10 C-20 11.98 -20 13.96 -20 16 C-20.9075 16.144375 -21.815 16.28875 -22.75 16.4375 C-25.21476956 16.86409473 -27.58847107 17.35074221 -30 18 C-30.33 17.01 -30.66 16.02 -31 15 C-31.99 15.495 -31.99 15.495 -33 16 C-32.67 17.32 -32.34 18.64 -32 20 C-35 22 -35 22 -39 22 C-39 22.66 -39 23.32 -39 24 C-39.99 24 -40.98 24 -42 24 C-42.433125 23.1028125 -42.433125 23.1028125 -42.875 22.1875 C-44.04742026 19.80672208 -44.04742026 19.80672208 -46 17 C-45.34 16.34 -44.68 15.68 -44 15 C-44.33 14.01 -44.66 13.02 -45 12 C-43.68 12 -42.36 12 -41 12 C-41 11.34 -41 10.68 -41 10 C-39.948125 10.04125 -38.89625 10.0825 -37.8125 10.125 C-34.21013123 10.00688955 -32.22436979 9.43305324 -29 8 C-28.01 8 -27.02 8 -26 8 C-26 7.34 -26 6.68 -26 6 C-26.66 6 -27.32 6 -28 6 C-28 5.34 -28 4.68 -28 4 C-25.23723823 4.52268466 -22.6739124 5.10869587 -20 6 C-20 4.68 -20 3.36 -20 2 C-12.25 1.875 -12.25 1.875 -10 3 C-8.0870598 3.23434712 -8.0870598 3.23434712 -6 3.25 C-4.948125 3.28867187 -4.948125 3.28867187 -3.875 3.328125 C-3.25625 3.21984375 -2.6375 3.1115625 -2 3 C-1.34 2.01 -0.68 1.02 0 0 Z M2 2 C2 2.66 2 3.32 2 4 C2.66 3.67 3.32 3.34 4 3 C3.34 2.67 2.68 2.34 2 2 Z M-18 4 C-14 5 -14 5 -14 5 Z M-1 5 C0.65 6.32 2.3 7.64 4 9 C3.67 7.68 3.34 6.36 3 5 C1.68 5 0.36 5 -1 5 Z M-1 8 C0 10 0 10 0 10 Z M-28 10 C-27 13 -27 13 -27 13 Z M-24 10 C-23 13 -23 13 -23 13 Z M-37 16 C-36 18 -36 18 -36 18 Z M-41 17 C-40 19 -40 19 -40 19 Z M-36 18 C-35 20 -35 20 -35 20 Z " fill="#D40000" transform="translate(109,23)"/>
<path d="M0 0 C2.41914224 2.63259597 3.86476266 4.59428799 5 8 C7.01508358 8.73323796 7.01508358 8.73323796 9 9 C9 9.99 9 10.98 9 12 C9.8353125 12.1546875 9.8353125 12.1546875 10.6875 12.3125 C13.4769101 13.14178408 15.6139064 14.34299056 18 16 C18 16.66 18 17.32 18 18 C18.7425 18.12375 19.485 18.2475 20.25 18.375 C22.80141485 18.95486701 24.7267573 19.73708739 27 21 C27 21.99 27 22.98 27 24 C27.53109375 23.79503906 28.0621875 23.59007812 28.609375 23.37890625 C31.91820875 22.85446691 34.1166421 23.81357814 37.25 24.9375 C38.32765625 25.31777344 39.4053125 25.69804687 40.515625 26.08984375 C41.33546875 26.39019531 42.1553125 26.69054687 43 27 C42.67 29.64 42.34 32.28 42 35 C39.69 34.67 37.38 34.34 35 34 C35.33 32.02 35.66 30.04 36 28 C35.34 28 34.68 28 34 28 C33.505 30.475 33.505 30.475 33 33 C32.01 32.67 31.02 32.34 30 32 C30 30.35 30 28.7 30 27 C29.34 27.99 28.68 28.98 28 30 C25.4375 30.25 25.4375 30.25 23 30 C22 29 22 29 21.9375 26.4375 C21.958125 25.633125 21.97875 24.82875 22 24 C21.54625 24.495 21.0925 24.99 20.625 25.5 C19 27 19 27 17 27 C17.33 24.69 17.66 22.38 18 20 C17.01 21.32 16.02 22.64 15 24 C14.01 23.67 13.02 23.34 12 23 C12.66 21.35 13.32 19.7 14 18 C13.401875 18.515625 12.80375 19.03125 12.1875 19.5625 C11.465625 20.036875 10.74375 20.51125 10 21 C9.01 20.67 8.02 20.34 7 20 C7.99 18.02 8.98 16.04 10 14 C9.608125 14.515625 9.21625 15.03125 8.8125 15.5625 C7 17 7 17 4.5625 16.9375 C1.49950676 15.81689272 0.0202973 14.54407808 -2 12 C-2 11.01 -2 10.02 -2 9 C-2.99 9 -3.98 9 -5 9 C-5 8.01 -5 7.02 -5 6 C-5.99 6 -6.98 6 -8 6 C-6.24081631 1.94034532 -4.71412298 0 0 0 Z " fill="#D40000" transform="translate(51,160)"/>
<path d="M0 0 C4.42857143 5.14285714 4.42857143 5.14285714 5 9 C2.69 9.33 0.38 9.66 -2 10 C-2.33 9.01 -2.66 8.02 -3 7 C-3.66 7 -4.32 7 -5 7 C-4.01 8.175625 -4.01 8.175625 -3 9.375 C-1 12 -1 12 -1 14 C-1.66 14 -2.32 14 -3 14 C-3 14.99 -3 15.98 -3 17 C-3.66 17 -4.32 17 -5 17 C-5 17.66 -5 18.32 -5 19 C-6.98 19 -8.96 19 -11 19 C-11.33 19.66 -11.66 20.32 -12 21 C-11.01 21 -10.02 21 -9 21 C-9 21.66 -9 22.32 -9 23 C-11.31 23 -13.62 23 -16 23 C-14.77119784 24.2941742 -14.77119784 24.2941742 -12 26 C-12.33 27.65 -12.66 29.3 -13 31 C-13.99 31.33 -14.98 31.66 -16 32 C-16.33 32.66 -16.66 33.32 -17 34 C-19.31 34 -21.62 34 -24 34 C-23.47219389 29.17021257 -22.06702396 25.89470078 -19.5625 21.75 C-18.94503906 20.71359375 -18.32757813 19.6771875 -17.69140625 18.609375 C-16 16 -16 16 -14 14 C-13.59952556 11.67724823 -13.2602896 9.34260643 -13 7 C-11.783125 6.5875 -10.56625 6.175 -9.3125 5.75 C-5.63264526 4.3839438 -2.93081636 2.65605232 0 0 Z M0 5 C1 7 1 7 1 7 Z M-11 8 C-10.67 8.66 -10.34 9.32 -10 10 C-9.67 9.34 -9.34 8.68 -9 8 C-9.66 8 -10.32 8 -11 8 Z M-9 15 C-9 15.66 -9 16.32 -9 17 C-8.01 16.67 -7.02 16.34 -6 16 C-6.99 15.67 -7.98 15.34 -9 15 Z M-13 16 C-12 18 -12 18 -12 18 Z " fill="#D40000" transform="translate(57,44)"/>
<path d="M0 0 C2.4296875 0.90625 2.4296875 0.90625 3.546875 2.875 C3.79695312 3.7103125 4.04703125 4.545625 4.3046875 5.40625 C6.29183575 11.02034768 9.11437843 15.75181868 13.4296875 19.90625 C14.76013702 20.25091355 16.09308926 20.58625932 17.4296875 20.90625 C18.4296875 23.90625 18.4296875 23.90625 18.0546875 26.46875 C16.07480494 29.43857384 15.19363588 29.47275507 11.8046875 30.21875 C10.34980315 30.46887996 8.89208565 30.70464367 7.4296875 30.90625 C6.7696875 29.25625 6.1096875 27.60625 5.4296875 25.90625 C5.7596875 25.57625 6.0896875 25.24625 6.4296875 24.90625 C5.4396875 24.57625 4.4496875 24.24625 3.4296875 23.90625 C3.4296875 22.25625 3.4296875 20.60625 3.4296875 18.90625 C2.4396875 18.90625 1.4496875 18.90625 0.4296875 18.90625 C0.2421875 16.53125 0.2421875 16.53125 0.4296875 13.90625 C1.4196875 13.24625 2.4096875 12.58625 3.4296875 11.90625 C2.4396875 11.57625 1.4496875 11.24625 0.4296875 10.90625 C-0.2303125 12.22625 -0.8903125 13.54625 -1.5703125 14.90625 C-2.2303125 14.90625 -2.8903125 14.90625 -3.5703125 14.90625 C-4.2303125 12.59625 -4.8903125 10.28625 -5.5703125 7.90625 C-6.8903125 7.90625 -8.2103125 7.90625 -9.5703125 7.90625 C-4.4828561 -0.16350843 -4.4828561 -0.16350843 0 0 Z M-1.5703125 1.90625 C-0.9103125 2.56625 -0.2503125 3.22625 0.4296875 3.90625 C0.4296875 3.24625 0.4296875 2.58625 0.4296875 1.90625 C-0.2303125 1.90625 -0.8903125 1.90625 -1.5703125 1.90625 Z M6.4296875 14.90625 C7.4296875 16.90625 7.4296875 16.90625 7.4296875 16.90625 Z M11.4296875 24.90625 C11.0996875 25.56625 10.7696875 26.22625 10.4296875 26.90625 C11.4196875 26.57625 12.4096875 26.24625 13.4296875 25.90625 C12.7696875 25.57625 12.1096875 25.24625 11.4296875 24.90625 Z " fill="#D40000" transform="translate(168.5703125,47.09375)"/>
<path d="M0 0 C0.103125 1.010625 0.20625 2.02125 0.3125 3.0625 C1.01860244 7.10654125 2.31313074 10.27483038 4 14 C4.36784131 15.3242287 4.71202981 16.65613912 5 18 C5.33 18.99 5.66 19.98 6 21 C5.01 21.66 4.02 22.32 3 23 C4.65 23 6.3 23 8 23 C7.67 24.65 7.34 26.3 7 28 C8.32 28.33 9.64 28.66 11 29 C11 29.66 11 30.32 11 31 C11.66 31.33 12.32 31.66 13 32 C11.9024777 34.99324263 11.32317108 35.84610901 8.375 37.25 C7.59125 37.4975 6.8075 37.745 6 38 C5.67 36.68 5.34 35.36 5 34 C4.34 34 3.68 34 3 34 C3 33.01 3 32.02 3 31 C2.34 31 1.68 31 1 31 C1 29.68 1 28.36 1 27 C0.34 27 -0.32 27 -1 27 C-1.103125 25.906875 -1.20625 24.81375 -1.3125 23.6875 C-1.61209653 20.09216056 -1.61209653 20.09216056 -3.5 18.5625 C-5.6569869 16.31563865 -5.48635222 13.98959456 -5.75 10.99609375 C-6.06778331 8.4587926 -6.99737955 6.33944773 -8 4 C-8 3.01 -8 2.02 -8 1 C-5.10765685 0.17361624 -3.11257569 0 0 0 Z " fill="#D40000" transform="translate(34,123)"/>
<path d="M0 0 C13.20419607 0.46330513 25.04732433 7.1061371 36 14 C34.57268007 16.92846676 33.13071088 19.51417063 31 22 C30.34 22 29.68 22 29 22 C29.33 20.35 29.66 18.7 30 17 C26.87844121 15.99664182 25.12599828 16.19329077 22 17 C21.01 16.67 20.02 16.34 19 16 C19 15.01 19 14.02 19 13 C18.360625 12.87625 17.72125 12.7525 17.0625 12.625 C16.381875 12.41875 15.70125 12.2125 15 12 C14.67 11.34 14.34 10.68 14 10 C14 10.66 14 11.32 14 12 C13.01 12 12.02 12 11 12 C10.67 9.69 10.34 7.38 10 5 C9.67 5 9.34 5 9 5 C8.67 6.65 8.34 8.3 8 10 C7.01 10 6.02 10 5 10 C4.67 8.68 4.34 7.36 4 6 C4 6.99 4 7.98 4 9 C3.01 8.67 2.02 8.34 1 8 C-0.35439668 5.29120665 -0.06501451 2.99066732 0 0 Z M23 11 C24 13 24 13 24 13 Z M22 13 C23 15 23 15 23 15 Z " fill="#D30000" transform="translate(123,28)"/>
<path d="M0 0 C2.64 0.33 5.28 0.66 8 1 C7.19341679 6.99176096 5.93205412 12.38229414 4.0625 18.125 C3.72347656 19.17945313 3.38445312 20.23390625 3.03515625 21.3203125 C2 24 2 24 0 26 C-0.34342449 27.33076989 -0.67619874 28.66431979 -1 30 C-1.66 30.99 -2.32 31.98 -3 33 C-7.75 31.125 -7.75 31.125 -10 30 C-9.43617933 26.617076 -8.59799443 24.01843392 -7 21 C-5.97431565 18.67712661 -4.98944014 16.33867669 -4 14 C-1.03 14.495 -1.03 14.495 2 15 C1.67 14.01 1.34 13.02 1 12 C0.01 11.67 -0.98 11.34 -2 11 C-1 3.57142857 -1 3.57142857 0 0 Z " fill="#D50000" transform="translate(186,123)"/>
<path d="M0 0 C0 0.66 0 1.32 0 2 C0.66 2 1.32 2 2 2 C2 5.96 2 9.92 2 14 C1.01 14.495 1.01 14.495 0 15 C0 14.34 0 13.68 0 13 C-0.99 13 -1.98 13 -3 13 C-3 12.01 -3 11.02 -3 10 C-4.65 10.33 -6.3 10.66 -8 11 C-7.01 11 -6.02 11 -5 11 C-5 12.32 -5 13.64 -5 15 C-6.65 15 -8.3 15 -10 15 C-11.80051919 11.11466913 -12.12512886 9.44163127 -10.9375 5.25 C-9 2 -9 2 -6.5625 0.5625 C-4 0 -4 0 0 0 Z " fill="#D50000" transform="translate(114,140)"/>
<path d="M0 0 C3 0.375 3 0.375 6 2.375 C6.1875 5.25 6.1875 5.25 6 8.375 C6 9.695 6 11.015 6 12.375 C5.01 12.375 4.02 12.375 3 12.375 C3 13.365 3 14.355 3 15.375 C0.125 14.6875 0.125 14.6875 -3 13.375 C-4.3125 11 -4.3125 11 -5 8.375 C-5.268125 7.694375 -5.53625 7.01375 -5.8125 6.3125 C-6 4.375 -6 4.375 -4.9375 2.125 C-3 0.375 -3 0.375 0 0 Z " fill="#D40000" transform="translate(91,144.625)"/>
<path d="M0 0 C-0.33 2.31 -0.66 4.62 -1 7 C-1.99 7.33 -2.98 7.66 -4 8 C-4.33 8.99 -4.66 9.98 -5 11 C-5.66 11 -6.32 11 -7 11 C-7 10.01 -7 9.02 -7 8 C-8.32 7.67 -9.64 7.34 -11 7 C-11.33 4.69 -11.66 2.38 -12 0 C-8.04395608 -1.21724428 -3.79359325 -1.89679663 0 0 Z " fill="#D40000" transform="translate(134,147)"/>
<path d="M0 0 C2.5625 0.125 2.5625 0.125 4.5625 1.125 C6.56210012 1.164992 8.56297242 1.16846799 10.5625 1.125 C10.5625 2.775 10.5625 4.425 10.5625 6.125 C9.5725 6.125 8.5825 6.125 7.5625 6.125 C7.5625 7.115 7.5625 8.105 7.5625 9.125 C7.005625 8.939375 6.44875 8.75375 5.875 8.5625 C3.5116414 7.95033455 3.5116414 7.95033455 1 8.75 C-1.4375 9.125 -1.4375 9.125 -3.3125 8 C-4.4375 6.125 -4.4375 6.125 -4.1875 3.5 C-3.13297325 0.16066529 -3.13297325 0.16066529 0 0 Z M-0.4375 3.125 C-0.4375 4.115 -0.4375 5.105 -0.4375 6.125 C0.2225 5.795 0.8825 5.465 1.5625 5.125 C1.5625 4.465 1.5625 3.805 1.5625 3.125 C0.9025 3.125 0.2425 3.125 -0.4375 3.125 Z " fill="#D30000" transform="translate(100.4375,187.875)"/>
<path d="M0 0 C1.2065625 0.0309375 1.2065625 0.0309375 2.4375 0.0625 C3.0625 1.9375 3.0625 1.9375 3.4375 4.0625 C2.7775 4.7225 2.1175 5.3825 1.4375 6.0625 C0.1175 6.0625 -1.2025 6.0625 -2.5625 6.0625 C-2.94468767 4.40635343 -3.27645102 2.73792976 -3.5625 1.0625 C-2.5625 0.0625 -2.5625 0.0625 0 0 Z " fill="#D50000" transform="translate(192.5625,97.9375)"/>
<path d="M0 0 C1.2065625 0.0309375 1.2065625 0.0309375 2.4375 0.0625 C2.4375 1.7125 2.4375 3.3625 2.4375 5.0625 C0.7875 5.3925 -0.8625 5.7225 -2.5625 6.0625 C-2.94468767 4.40635343 -3.27645102 2.73792976 -3.5625 1.0625 C-2.5625 0.0625 -2.5625 0.0625 0 0 Z " fill="#D30000" transform="translate(31.5625,97.9375)"/>
<path d="M0 0 C0.99 0 1.98 0 3 0 C3 0.66 3 1.32 3 2 C2.01 2 1.02 2 0 2 C0 1.34 0 0.68 0 0 Z " fill="#D20000" transform="translate(131,26)"/>
</svg>
