<svg xmlns="http://www.w3.org/2000/svg" version="1.0" width="225.000000pt" height="225.000000pt" viewBox="-3 -3 231 231" preserveAspectRatio="xMidYMid meet"><g id="deeditor_bgCarrier" stroke-width="0">
  <rect id="dee_c_e" x="-3" y="-3" width="231" height="231" rx="38.4" fill="#ffffff" strokewidth="0"/>
</g>

<g transform="translate(0.000000,225.000000) scale(0.100000,-0.100000)" fill="#000000" stroke="none">
<path d="M0 1125 l0 -1125 1125 0 1125 0 0 1125 0 1125 -1125 0 -1125 0 0 -1125z m1563 1011 c56 -21 106 -63 130 -112 14 -30 35 -53 64 -70 64 -37 96 -99 95 -180 -1 -35 3 -64 8 -64 16 0 73 -64 87 -98 19 -45 19 -119 0 -165 -15 -33 -14 -38 3 -60 30 -38 35 -95 12 -139 l-19 -37 28 -27 c15 -14 42 -53 60 -87 58 -110 47 -247 -28 -346 -24 -31 -28 -45 -28 -106 -1 -52 -6 -81 -23 -111 -44 -85 -141 -141 -231 -132 l-39 3 -7 -44 c-20 -134 -127 -239 -262 -256 -66 -9 -133 9 -133 36 0 16 4 18 28 12 43 -12 133 -7 173 9 82 35 141 115 154 209 6 44 6 46 -30 70 -79 53 -118 154 -98 252 8 37 7 50 -4 59 -44 36 -55 120 -24 178 55 105 208 109 272 8 16 -26 19 -45 16 -91 -3 -49 -8 -62 -37 -92 -41 -42 -89 -59 -141 -51 -37 6 -38 5 -45 -29 -9 -48 3 -103 31 -146 78 -120 264 -114 333 9 28 50 36 102 23 147 -10 36 -8 41 24 76 51 57 68 103 68 189 1 62 -4 84 -25 126 -27 51 -97 124 -121 124 -6 0 0 10 16 23 37 30 50 80 32 123 -15 37 -26 42 -45 20 -13 -17 -62 -35 -103 -38 -15 -1 -35 -10 -44 -20 -35 -39 -113 -4 -113 51 0 34 37 71 71 71 27 0 69 -33 69 -53 0 -15 68 0 99 22 83 60 81 210 -5 266 -24 16 -26 15 -46 -10 -28 -36 -90 -65 -138 -65 -33 0 -40 3 -40 20 0 16 7 20 38 20 80 0 142 68 142 156 0 146 -177 208 -272 95 -17 -20 -32 -29 -42 -25 -22 8 -20 18 10 54 32 38 76 62 127 69 l38 6 -23 35 c-48 70 -128 102 -207 80 -45 -12 -116 -69 -126 -101 -7 -20 -30 -26 -40 -9 -13 22 48 100 100 127 66 35 126 41 188 19z m-349 -152 c9 -3 16 -14 16 -24 0 -17 -11 -18 -122 -18 -236 2 -439 -76 -601 -231 -189 -179 -277 -386 -277 -651 0 -382 262 -725 636 -832 65 -19 104 -23 221 -23 140 0 143 0 143 -22 0 -19 -7 -22 -57 -29 -170 -21 -416 41 -571 143 -84 56 -203 173 -262 259 -182 263 -209 621 -69 911 129 269 386 464 676 513 58 9 245 12 267 4z m-45 -90 c50 -6 61 -10 61 -25 0 -17 -10 -19 -113 -19 -129 0 -231 -21 -336 -70 -289 -135 -469 -439 -448 -755 8 -119 28 -191 81 -300 136 -276 416 -445 721 -433 93 3 95 2 95 -19 0 -23 -2 -23 -112 -23 -238 0 -434 82 -598 251 -223 228 -289 569 -171 875 109 283 380 485 691 517 19 2 42 5 51 5 9 1 44 -1 78 -4z m-301 -160 c30 -21 29 -59 -3 -80 -23 -15 -27 -15 -50 0 -29 19 -32 51 -8 78 20 22 32 23 61 2z m303 -40 c7 -9 14 -35 14 -58 l0 -41 48 -3 c39 -3 47 -6 47 -23 0 -16 -7 -19 -43 -19 -62 0 -85 20 -89 78 l-3 47 -112 3 c-91 2 -113 5 -113 17 0 23 232 22 251 -1z m-402 -120 c11 -14 17 -33 14 -42 -7 -21 -32 -42 -50 -42 -18 0 -53 37 -53 55 0 19 35 55 54 55 8 0 24 -12 35 -26z m305 -36 c9 -12 16 -39 16 -60 l0 -38 95 0 c88 0 95 -1 95 -20 0 -19 -7 -20 -93 -20 -113 0 -129 8 -136 76 l-6 49 -107 3 c-87 2 -108 6 -108 17 0 12 21 15 114 15 107 0 116 -1 130 -22z m-398 -143 c15 -23 15 -27 0 -50 -10 -15 -26 -25 -41 -25 -15 0 -31 10 -41 25 -15 23 -15 27 0 50 10 15 26 25 41 25 15 0 31 -10 41 -25z m281 -20 c16 -11 23 -28 25 -63 l3 -47 148 -3 c122 -2 147 -5 147 -17 0 -13 -25 -15 -154 -15 -174 0 -177 1 -180 72 l-1 43 -112 3 c-105 2 -113 4 -113 22 0 19 7 20 108 20 80 0 113 -4 129 -15z m45 -262 c24 -22 23 -58 -3 -77 -47 -32 -102 32 -64 74 22 24 42 25 67 3z m278 -38 c0 -12 -18 -15 -105 -15 -87 0 -105 3 -105 15 0 12 18 15 105 15 87 0 105 -3 105 -15z m0 -175 c0 -18 -8 -20 -147 -22 l-148 -3 -5 -47 c-3 -27 -11 -53 -17 -59 -7 -7 -56 -12 -124 -13 -101 -1 -114 1 -117 17 -3 15 7 17 106 17 121 0 122 1 122 65 0 57 23 65 187 65 136 0 143 -1 143 -20z m-606 -99 c21 -23 14 -56 -15 -72 -46 -24 -93 24 -64 67 19 29 55 31 79 5z m606 -76 c0 -11 -19 -15 -92 -17 l-93 -3 -6 -49 c-8 -69 -21 -76 -151 -76 -101 0 -108 1 -108 20 0 19 7 20 110 20 l110 0 0 38 c0 21 7 48 16 60 14 20 23 22 115 22 80 0 99 -3 99 -15z m-503 -104 c13 -27 3 -58 -23 -68 -27 -10 -63 7 -70 33 -14 56 67 87 93 35z m503 -46 c0 -11 -11 -15 -38 -15 -49 0 -62 -14 -62 -67 0 -57 -14 -63 -148 -63 -99 0 -110 2 -108 18 3 15 17 17 114 20 l112 3 0 41 c0 58 21 78 82 78 36 0 48 -4 48 -15z m-405 -95 c27 -29 10 -74 -28 -78 -36 -4 -57 13 -57 49 0 47 53 65 85 29z" fill="#000000"/>
<path d="M1656 1394 c-9 -8 -16 -23 -16 -33 0 -21 30 -51 52 -51 19 0 48 32 48 53 0 21 -27 47 -50 47 -10 0 -26 -7 -34 -16z m64 -13 c18 -34 -10 -68 -44 -55 -35 13 -23 74 14 74 11 0 24 -9 30 -19z" fill="#000000"/>
<path d="M1677 1366 c-6 -16 19 -30 28 -16 7 11 -2 30 -15 30 -4 0 -10 -6 -13 -14z" fill="#000000"/>
<path d="M1549 957 c-19 -12 -39 -39 -48 -60 -12 -33 -12 -42 4 -82 27 -71 108 -98 176 -58 29 17 59 67 59 97 0 35 -30 86 -62 106 -43 26 -87 25 -129 -3z m116 -52 c30 -30 31 -54 4 -89 -29 -36 -80 -36 -109 1 -55 70 42 151 105 88z" fill="#000000"/>
<path d="M1587 884 c-25 -25 8 -70 43 -59 32 10 24 59 -10 63 -14 2 -29 0 -33 -4z" fill="#000000"/>
<path d="M814 1705 c-4 -9 -2 -21 4 -27 16 -16 47 -5 47 17 0 26 -42 34 -51 10z" fill="#000000"/>
<path d="M707 1556 c-8 -20 19 -47 39 -39 22 8 13 47 -12 51 -12 2 -24 -4 -27 -12z" fill="#000000"/>
<path d="M614 1386 c-9 -24 4 -48 23 -44 12 2 18 12 18 28 0 29 -32 41 -41 16z" fill="#000000"/>
<path d="M950 1095 c-17 -20 -5 -45 20 -45 11 0 23 7 26 15 6 15 -11 45 -26 45 -4 0 -13 -7 -20 -15z" fill="#000000"/>
<path d="M617 794 c-12 -12 -8 -42 6 -47 21 -8 39 8 35 29 -3 19 -29 30 -41 18z" fill="#000000"/>
<path d="M710 614 c-11 -12 -10 -18 3 -31 8 -9 23 -13 31 -10 21 8 21 43 0 51 -21 8 -20 8 -34 -10z" fill="#000000"/>
<path d="M822 471 c-20 -12 -10 -46 14 -49 25 -4 40 24 23 44 -13 16 -19 17 -37 5z" fill="#000000"/>
</g>
</svg>
